<svg id="SvgjsSvg1001" width="288" height="288" xmlns="http://www.w3.org/2000/svg" version="1.1" xmlns:xlink="http://www.w3.org/1999/xlink" xmlns:svgjs="http://svgjs.com/svgjs"><defs id="SvgjsDefs1002"></defs><g id="SvgjsG1008"><svg xmlns="http://www.w3.org/2000/svg" viewBox="0 0 1440 320" width="288" height="288"><path fill="#0b7765" d="M0,192L26.7,186.7C53.3,181,107,171,160,144C213.3,117,267,75,320,69.3C373.3,64,427,96,480,112C533.3,128,587,128,640,138.7C693.3,149,747,171,800,197.3C853.3,224,907,256,960,245.3C1013.3,235,1067,181,1120,165.3C1173.3,149,1227,171,1280,197.3C1333.3,224,1387,256,1413,272L1440,288L1440,320L1413.3,320C1386.7,320,1333,320,1280,320C1226.7,320,1173,320,1120,320C1066.7,320,1013,320,960,320C906.7,320,853,320,800,320C746.7,320,693,320,640,320C586.7,320,533,320,480,320C426.7,320,373,320,320,320C266.7,320,213,320,160,320C106.7,320,53,320,27,320L0,320Z" class="color00cba9 svgShape"></path></svg></g></svg>